<?xml version="1.0" encoding="UTF-8"?><svg id="Layer_1" xmlns="http://www.w3.org/2000/svg" viewBox="0 0 500 500"><path d="m181.39,152.12c-8.9,0-15.1,2.4-18.5,7.2-3.4,4.8-5,12.2-5,22.2v127.9c0,10,1.6,17.4,4.9,22.2s9.5,7.2,18.6,7.2h7.5v20.9h-9.1c-17.4,0-29.6-4.1-36.5-12.2-7-8.2-10.4-20.8-10.4-38v-128.1c0-17.2,3.5-29.8,10.4-38,7-8.2,19.1-12.3,36.5-12.3h9.1v20.9h-7.5v.1Z" style="stroke-width:0px;"/><path d="m320.77,131.22c10.2,0,18,3.1,23.3,9.1,5.3,6.1,8.3,14.7,9,25.8l2.6,44.4c.2,3.9.6,7.3,1.1,10.3.5,2.9,1.5,5.4,2.8,7.3,1.3,2,3.2,3.5,5.7,4.6s5.7,1.7,9.6,2v21.5c-3.9.4-7.1,1.1-9.6,2.1s-4.4,2.4-5.7,4.4c-1.3,2-2.2,4.4-2.8,7.4-.5,2.9-.9,6.4-1.1,10.3l-2.6,44.3c-.7,11.1-3.6,19.7-9,25.8-5.3,6.1-13.1,9.1-23.3,9.1h-15v-20.9h6.2c7,0,11.7-2,14.2-6s4-10.4,4.4-19.1l2-36.9c.2-3.5.6-6.9,1.1-10.1.5-3.3,1.6-6.2,3.1-9,1.5-2.7,3.6-5.2,6.4-7.4,2.7-2.2,6.3-3.8,10.6-4.9-4.3-1.1-7.9-2.7-10.6-4.9-2.7-2.2-4.8-4.6-6.4-7.3-1.5-2.7-2.6-5.7-3.1-9s-.9-6.6-1.1-10.1l-2-36.9c-.4-8.7-1.9-15.1-4.4-19.1s-7.2-6-14.2-6h-6.2v-20.9h15v.1Z" style="stroke-width:0px;"/><path d="m231.21,110.31h10.8l-8.2,28.7h9.5v31.7h-24.5v-29.4l12.4-31Zm36.5,0h10.4l-7.8,28.7h9.1v31.7h-24.1v-29.4l12.4-31Z" style="stroke-width:0px;"/><circle cx="250" cy="250" r="209.5" style="fill:none; stroke:#000; stroke-miterlimit:10; stroke-width:19px;"/></svg>